<svg xmlns="http://www.w3.org/2000/svg"  viewBox="0 0 24 24" width="384px" height="384px"><g data-name="Man"><path fill="none" stroke="#000" stroke-miterlimit="10" stroke-width="2" d="M1,18C1,11.192,5.715,6,12,6s11,5.192,11,12"/><polygon points="8.674 18 8.674 14 6.949 14 6.087 15.5 5.225 14 3.5 14 3.5 18 5.225 18 5.225 16.5 6.087 17.5 6.949 16.5 6.949 18 8.674 18"/><path d="M12.739,14H11.261L9.413,18h1.478l.252-.5h1.718l.248.5h1.478ZM11.6,16.5l.4-.867.4.867Z"/><polyline points="15.326 14 17.051 14 18.775 15.5 18.775 14 20.5 14 20.5 18 18.775 18 17.051 16.5 17.051 18 15.326 18 15.326 14"/></g></svg>